<svg width="900" height="570" viewBox="0 0 900 570" xmlns="http://www.w3.org/2000/svg" font-family="'Segoe UI', system-ui, sans-serif">
  <defs>
    <marker id="arr" viewBox="0 0 10 10" refX="8" refY="5" markerWidth="6" markerHeight="6" orient="auto-start-reverse">
      <path d="M2 1L8 5L2 9" fill="none" stroke="#FFFFFF" stroke-width="1.5" stroke-linecap="round" stroke-linejoin="round"/>
    </marker>
    <marker id="arr-green" viewBox="0 0 10 10" refX="8" refY="5" markerWidth="6" markerHeight="6" orient="auto-start-reverse">
      <path d="M2 1L8 5L2 9" fill="none" stroke="#3DB88A" stroke-width="1.5" stroke-linecap="round" stroke-linejoin="round"/>
    </marker>
  </defs>

  <rect width="900" height="570" fill="#0F0F1A" rx="16"/>
  <text x="450" y="36" text-anchor="middle" font-size="18" font-weight="700" fill="#FFFFFF" letter-spacing="0.5">FocusFlow AI — Page Map</text>

  <!-- /auth root -->
  <rect x="320" y="56" width="260" height="60" rx="8" fill="#1E2038" stroke="#FFFFFF" stroke-width="1.5"/>
  <text x="450" y="81" text-anchor="middle" font-size="14" font-weight="700" fill="#FFFFFF">/auth</text>
  <text x="450" y="102" text-anchor="middle" font-size="11" fill="#888888">Login / signup / OAuth (Google · GitHub · Email)</text>

  <!-- Branches -->
  <path d="M390 116 L210 174" fill="none" stroke="#FFFFFF" stroke-width="1.5" marker-end="url(#arr)"/>
  <path d="M510 116 L690 174" fill="none" stroke="#FFFFFF" stroke-width="1.5" marker-end="url(#arr)"/>
  <text x="272" y="150" text-anchor="middle" font-size="11" fill="#888888">new user</text>
  <text x="626" y="150" text-anchor="middle" font-size="11" fill="#888888">returning</text>

  <!-- /onboarding -->
  <rect x="80" y="174" width="260" height="60" rx="8" fill="#1A3830" stroke="#3DB88A" stroke-width="1.5"/>
  <text x="210" y="199" text-anchor="middle" font-size="14" font-weight="700" fill="#FFFFFF">/onboarding</text>
  <text x="210" y="220" text-anchor="middle" font-size="11" fill="#7EEDC5">Goals + schedule prefs</text>

  <!-- /app shell -->
  <rect x="560" y="174" width="260" height="60" rx="8" fill="#2D1F6E" stroke="#9B8FE8" stroke-width="1.5"/>
  <text x="690" y="199" text-anchor="middle" font-size="14" font-weight="700" fill="#FFFFFF">/app (shell)</text>
  <text x="690" y="220" text-anchor="middle" font-size="11" fill="#A89FD8">Sidebar + global nav</text>

  <!-- onboarding → shell -->
  <path d="M340 204 L560 204" fill="none" stroke="#3DB88A" stroke-width="1.5" marker-end="url(#arr-green)"/>

  <!-- Shell → 5 main pages -->
  <path d="M618 234 L86 294" fill="none" stroke="#FFFFFF" stroke-width="1" marker-end="url(#arr)"/>
  <path d="M645 234 L230 294" fill="none" stroke="#FFFFFF" stroke-width="1" marker-end="url(#arr)"/>
  <path d="M672 234 L450 294" fill="none" stroke="#FFFFFF" stroke-width="1" marker-end="url(#arr)"/>
  <path d="M710 234 L660 294" fill="none" stroke="#FFFFFF" stroke-width="1" marker-end="url(#arr)"/>
  <path d="M740 234 L820 294" fill="none" stroke="#FFFFFF" stroke-width="1" marker-end="url(#arr)"/>

  <!-- 5 main pages -->
  <rect x="28" y="294" width="116" height="64" rx="8" fill="#3B1F1A" stroke="#E8724A" stroke-width="1.5"/>
  <text x="86" y="320" text-anchor="middle" font-size="12" font-weight="700" fill="#FFFFFF">/dashboard</text>
  <text x="86" y="342" text-anchor="middle" font-size="10" fill="#F5A085">Score + today</text>

  <rect x="158" y="294" width="144" height="64" rx="8" fill="#3B1F1A" stroke="#E8724A" stroke-width="1.5"/>
  <text x="230" y="320" text-anchor="middle" font-size="12" font-weight="700" fill="#FFFFFF">/tasks</text>
  <text x="230" y="342" text-anchor="middle" font-size="10" fill="#F5A085">AI decomposer</text>

  <rect x="368" y="294" width="164" height="64" rx="8" fill="#3B1F1A" stroke="#E8724A" stroke-width="1.5"/>
  <text x="450" y="320" text-anchor="middle" font-size="12" font-weight="700" fill="#FFFFFF">/focus</text>
  <text x="450" y="342" text-anchor="middle" font-size="10" fill="#F5A085">Pomodoro + AI coach</text>

  <rect x="588" y="294" width="144" height="64" rx="8" fill="#3B1F1A" stroke="#E8724A" stroke-width="1.5"/>
  <text x="660" y="320" text-anchor="middle" font-size="12" font-weight="700" fill="#FFFFFF">/analytics</text>
  <text x="660" y="342" text-anchor="middle" font-size="10" fill="#F5A085">Heatmap + trends</text>

  <rect x="754" y="294" width="118" height="64" rx="8" fill="#3B1F1A" stroke="#E8724A" stroke-width="1.5"/>
  <text x="813" y="320" text-anchor="middle" font-size="12" font-weight="700" fill="#FFFFFF">/settings</text>
  <text x="813" y="342" text-anchor="middle" font-size="10" fill="#F5A085">Profile + prefs</text>

  <!-- Sub-page arrows (white) -->
  <line x1="230" y1="358" x2="200" y2="418" stroke="#FFFFFF" stroke-width="1" marker-end="url(#arr)"/>
  <line x1="450" y1="358" x2="450" y2="418" stroke="#FFFFFF" stroke-width="1" marker-end="url(#arr)"/>
  <line x1="660" y1="358" x2="660" y2="418" stroke="#FFFFFF" stroke-width="1" marker-end="url(#arr)"/>

  <!-- Sub-pages -->
  <rect x="90" y="418" width="220" height="56" rx="8" fill="#2B2208" stroke="#E8B830" stroke-width="1.5"/>
  <text x="200" y="441" text-anchor="middle" font-size="12" font-weight="700" fill="#FFFFFF">/tasks/[id]</text>
  <text x="200" y="460" text-anchor="middle" font-size="11" fill="#F5C842">Subtasks + progress</text>

  <rect x="358" y="418" width="184" height="56" rx="8" fill="#2B2208" stroke="#E8B830" stroke-width="1.5"/>
  <text x="450" y="441" text-anchor="middle" font-size="12" font-weight="700" fill="#FFFFFF">/focus/session</text>
  <text x="450" y="460" text-anchor="middle" font-size="11" fill="#F5C842">Live timer + AI chat</text>

  <rect x="568" y="418" width="184" height="56" rx="8" fill="#2B2208" stroke="#E8B830" stroke-width="1.5"/>
  <text x="660" y="441" text-anchor="middle" font-size="12" font-weight="700" fill="#FFFFFF">/analytics/advanced</text>
  <text x="660" y="460" text-anchor="middle" font-size="11" fill="#F5C842">Deep insights view</text>

  <!-- API strip -->
  <rect x="28" y="494" width="844" height="58" rx="8" fill="#16162A" stroke="#FFFFFF" stroke-width="0.5" stroke-dasharray="5 4"/>
  <text x="450" y="514" text-anchor="middle" font-size="10" font-weight="700" fill="#888888" letter-spacing="1.5">API ROUTES</text>
  <text x="450" y="534" text-anchor="middle" font-size="11" fill="#5A5790">/api/ai/decompose · /api/ai/coach · /api/tasks · /api/sessions · /api/analytics · /api/notifications · /api/export</text>
</svg>
