<svg width="900" height="620" viewBox="0 0 900 620" xmlns="http://www.w3.org/2000/svg" font-family="'Segoe UI', system-ui, sans-serif">
  <defs>
    <marker id="arr" viewBox="0 0 10 10" refX="8" refY="5" markerWidth="6" markerHeight="6" orient="auto-start-reverse">
      <path d="M2 1L8 5L2 9" fill="none" stroke="#5A5790" stroke-width="1.5" stroke-linecap="round" stroke-linejoin="round"/>
    </marker>
    <marker id="arr-red" viewBox="0 0 10 10" refX="8" refY="5" markerWidth="6" markerHeight="6" orient="auto-start-reverse">
      <path d="M2 1L8 5L2 9" fill="none" stroke="#C04820" stroke-width="1.5" stroke-linecap="round" stroke-linejoin="round"/>
    </marker>
  </defs>

  <rect width="900" height="620" fill="#0F0F1A" rx="16"/>
  <text x="450" y="38" text-anchor="middle" font-size="18" font-weight="700" fill="#E8E6FF" letter-spacing="0.5">FocusFlow AI — AI Pipeline</text>

  <!-- Divider -->
  <line x1="450" y1="58" x2="450" y2="520" stroke="#2D2B50" stroke-width="1" stroke-dasharray="5 4"/>

  <!-- Column headers -->
  <text x="225" y="68" text-anchor="middle" font-size="13" font-weight="700" fill="#7B6FD4" letter-spacing="0.5">TASK DECOMPOSER FLOW</text>
  <text x="675" y="68" text-anchor="middle" font-size="13" font-weight="700" fill="#3DB88A" letter-spacing="0.5">AI FOCUS COACH FLOW</text>

  <!-- LEFT COLUMN: decompose -->
  <!-- Step boxes (y positions: 90, 168, 246, 324, 402, 480) -->
  <rect x="72" y="88" width="308" height="58" rx="8" fill="#2D1F6E" stroke="#7B6FD4" stroke-width="1.5"/>
  <text x="226" y="111" text-anchor="middle" font-size="13" font-weight="600" fill="#C5BFFF">User goal input</text>
  <text x="226" y="130" text-anchor="middle" font-size="11" fill="#8A84C4">Title + description + deadline</text>

  <line x1="226" y1="146" x2="226" y2="166" stroke="#5A5790" stroke-width="1.5" marker-end="url(#arr)"/>

  <rect x="72" y="166" width="308" height="58" rx="8" fill="#1E2235" stroke="#4A4870" stroke-width="1"/>
  <text x="226" y="189" text-anchor="middle" font-size="13" font-weight="600" fill="#A0A0C8">Context builder</text>
  <text x="226" y="208" text-anchor="middle" font-size="11" fill="#6A6A90">User prefs + past patterns</text>

  <line x1="226" y1="224" x2="226" y2="244" stroke="#5A5790" stroke-width="1.5" marker-end="url(#arr)"/>

  <rect x="72" y="244" width="308" height="58" rx="8" fill="#2B2208" stroke="#C9820A" stroke-width="1.5"/>
  <text x="226" y="267" text-anchor="middle" font-size="13" font-weight="600" fill="#F5C842">System prompt</text>
  <text x="226" y="286" text-anchor="middle" font-size="11" fill="#B8960A">Role + output format (JSON)</text>

  <line x1="226" y1="302" x2="226" y2="322" stroke="#5A5790" stroke-width="1.5" marker-end="url(#arr)"/>

  <rect x="72" y="322" width="308" height="58" rx="8" fill="#3B1F1A" stroke="#D45A30" stroke-width="1.5"/>
  <text x="226" y="345" text-anchor="middle" font-size="13" font-weight="600" fill="#F5A085">Claude API call</text>
  <text x="226" y="364" text-anchor="middle" font-size="11" fill="#C47060">claude-sonnet-4-6 · max 1500 tk</text>

  <line x1="226" y1="380" x2="226" y2="400" stroke="#5A5790" stroke-width="1.5" marker-end="url(#arr)"/>

  <rect x="72" y="400" width="308" height="58" rx="8" fill="#1E2235" stroke="#4A4870" stroke-width="1"/>
  <text x="226" y="423" text-anchor="middle" font-size="13" font-weight="600" fill="#A0A0C8">Response parser</text>
  <text x="226" y="442" text-anchor="middle" font-size="11" fill="#6A6A90">JSON validate + sanitize</text>

  <line x1="226" y1="458" x2="226" y2="478" stroke="#5A5790" stroke-width="1.5" marker-end="url(#arr)"/>

  <rect x="72" y="478" width="308" height="58" rx="8" fill="#1A3830" stroke="#3DB88A" stroke-width="1.5"/>
  <text x="226" y="501" text-anchor="middle" font-size="13" font-weight="600" fill="#7EEDC5">Subtasks → DB</text>
  <text x="226" y="520" text-anchor="middle" font-size="11" fill="#4DB896">Supabase batch insert → UI render</text>

  <!-- RIGHT COLUMN: coach -->
  <rect x="520" y="88" width="308" height="58" rx="8" fill="#1A3830" stroke="#3DB88A" stroke-width="1.5"/>
  <text x="674" y="111" text-anchor="middle" font-size="13" font-weight="600" fill="#7EEDC5">User message</text>
  <text x="674" y="130" text-anchor="middle" font-size="11" fill="#4DB896">Chat input + current task</text>

  <line x1="674" y1="146" x2="674" y2="166" stroke="#5A5790" stroke-width="1.5" marker-end="url(#arr)"/>

  <rect x="520" y="166" width="308" height="58" rx="8" fill="#1E2235" stroke="#4A4870" stroke-width="1"/>
  <text x="674" y="189" text-anchor="middle" font-size="13" font-weight="600" fill="#A0A0C8">Session context</text>
  <text x="674" y="208" text-anchor="middle" font-size="11" fill="#6A6A90">Active task + score + history</text>

  <line x1="674" y1="224" x2="674" y2="244" stroke="#5A5790" stroke-width="1.5" marker-end="url(#arr)"/>

  <rect x="520" y="244" width="308" height="58" rx="8" fill="#2B2208" stroke="#C9820A" stroke-width="1.5"/>
  <text x="674" y="267" text-anchor="middle" font-size="13" font-weight="600" fill="#F5C842">System prompt</text>
  <text x="674" y="286" text-anchor="middle" font-size="11" fill="#B8960A">Coach persona + constraints</text>

  <line x1="674" y1="302" x2="674" y2="322" stroke="#5A5790" stroke-width="1.5" marker-end="url(#arr)"/>

  <rect x="520" y="322" width="308" height="58" rx="8" fill="#3B1F1A" stroke="#D45A30" stroke-width="1.5"/>
  <text x="674" y="345" text-anchor="middle" font-size="13" font-weight="600" fill="#F5A085">Claude API (streaming)</text>
  <text x="674" y="364" text-anchor="middle" font-size="11" fill="#C47060">Server-sent events (SSE)</text>

  <line x1="674" y1="380" x2="674" y2="400" stroke="#5A5790" stroke-width="1.5" marker-end="url(#arr)"/>

  <rect x="520" y="400" width="308" height="58" rx="8" fill="#1E2235" stroke="#4A4870" stroke-width="1"/>
  <text x="674" y="423" text-anchor="middle" font-size="13" font-weight="600" fill="#A0A0C8">Stream to UI</text>
  <text x="674" y="442" text-anchor="middle" font-size="11" fill="#6A6A90">Token-by-token rendering</text>

  <line x1="674" y1="458" x2="674" y2="478" stroke="#5A5790" stroke-width="1.5" marker-end="url(#arr)"/>

  <rect x="520" y="478" width="308" height="58" rx="8" fill="#1A3830" stroke="#3DB88A" stroke-width="1.5"/>
  <text x="674" y="501" text-anchor="middle" font-size="13" font-weight="600" fill="#7EEDC5">Chat history cached</text>
  <text x="674" y="520" text-anchor="middle" font-size="11" fill="#4DB896">Supabase + Redis cache</text>

  <!-- Rate limiter box at bottom, shared -->
  <path d="M226 536 L226 554 L450 570 L674 554 L674 536" fill="none" stroke="#8B1A1A" stroke-width="1" stroke-dasharray="4 3"/>
  <rect x="300" y="558" width="300" height="46" rx="8" fill="#2A0A0A" stroke="#8B1A1A" stroke-width="1.5"/>
  <text x="450" y="576" text-anchor="middle" font-size="13" font-weight="600" fill="#FF8080">Redis rate limiter (Upstash)</text>
  <text x="450" y="594" text-anchor="middle" font-size="11" fill="#C05050">10 AI requests / min per user</text>
</svg>
