<svg width="900" height="640" viewBox="0 0 900 640" xmlns="http://www.w3.org/2000/svg" font-family="'Segoe UI', system-ui, sans-serif">
  <defs>
    <marker id="arr" viewBox="0 0 10 10" refX="8" refY="5" markerWidth="6" markerHeight="6" orient="auto-start-reverse">
      <path d="M2 1L8 5L2 9" fill="none" stroke="#FFFFFF" stroke-width="1.5" stroke-linecap="round" stroke-linejoin="round"/>
    </marker>
    <marker id="arr-green" viewBox="0 0 10 10" refX="8" refY="5" markerWidth="6" markerHeight="6" orient="auto-start-reverse">
      <path d="M2 1L8 5L2 9" fill="none" stroke="#3DB88A" stroke-width="1.5" stroke-linecap="round" stroke-linejoin="round"/>
    </marker>
  </defs>

  <rect width="900" height="640" fill="#0F0F1A" rx="16"/>
  <text x="450" y="38" text-anchor="middle" font-size="18" font-weight="700" fill="#FFFFFF" letter-spacing="0.5">FocusFlow AI — System Architecture</text>

  <!-- Layer labels -->
  <text x="28" y="115" text-anchor="middle" font-size="11" fill="#888888" font-weight="600" letter-spacing="1.5" transform="rotate(-90,28,115)">CLIENT</text>
  <text x="28" y="235" text-anchor="middle" font-size="11" fill="#888888" font-weight="600" letter-spacing="1.5" transform="rotate(-90,28,235)">EDGE</text>
  <text x="28" y="390" text-anchor="middle" font-size="11" fill="#888888" font-weight="600" letter-spacing="1.5" transform="rotate(-90,28,390)">API</text>
  <text x="28" y="545" text-anchor="middle" font-size="11" fill="#888888" font-weight="600" letter-spacing="1.5" transform="rotate(-90,28,545)">DATA</text>

  <!-- Layer bands -->
  <rect x="52" y="58" width="830" height="108" rx="10" fill="#16162A" stroke="#FFFFFF" stroke-width="0.5" stroke-dasharray="6 4"/>
  <rect x="52" y="178" width="830" height="108" rx="10" fill="#16162A" stroke="#FFFFFF" stroke-width="0.5" stroke-dasharray="6 4"/>
  <rect x="52" y="298" width="830" height="238" rx="10" fill="#16162A" stroke="#FFFFFF" stroke-width="0.5" stroke-dasharray="6 4"/>
  <rect x="52" y="548" width="830" height="76" rx="10" fill="#16162A" stroke="#FFFFFF" stroke-width="0.5" stroke-dasharray="6 4"/>

  <!-- CLIENT boxes -->
  <rect x="72" y="78" width="178" height="68" rx="8" fill="#2D1F6E" stroke="#9B8FE8" stroke-width="1.5"/>
  <text x="161" y="107" text-anchor="middle" font-size="13" font-weight="700" fill="#FFFFFF">Dashboard</text>
  <text x="161" y="128" text-anchor="middle" font-size="11" fill="#A89FD8">Score + tasks</text>

  <rect x="264" y="78" width="178" height="68" rx="8" fill="#2D1F6E" stroke="#9B8FE8" stroke-width="1.5"/>
  <text x="353" y="107" text-anchor="middle" font-size="13" font-weight="700" fill="#FFFFFF">Task manager</text>
  <text x="353" y="128" text-anchor="middle" font-size="11" fill="#A89FD8">AI decomposer UI</text>

  <rect x="456" y="78" width="178" height="68" rx="8" fill="#2D1F6E" stroke="#9B8FE8" stroke-width="1.5"/>
  <text x="545" y="107" text-anchor="middle" font-size="13" font-weight="700" fill="#FFFFFF">Focus session</text>
  <text x="545" y="128" text-anchor="middle" font-size="11" fill="#A89FD8">Pomodoro + timer</text>

  <rect x="648" y="78" width="212" height="68" rx="8" fill="#2D1F6E" stroke="#9B8FE8" stroke-width="1.5"/>
  <text x="754" y="107" text-anchor="middle" font-size="13" font-weight="700" fill="#FFFFFF">Analytics</text>
  <text x="754" y="128" text-anchor="middle" font-size="11" fill="#A89FD8">Charts + heatmap</text>

  <!-- CLIENT → EDGE arrows -->
  <line x1="161" y1="146" x2="161" y2="178" stroke="#FFFFFF" stroke-width="1.5" marker-end="url(#arr)"/>
  <line x1="353" y1="146" x2="353" y2="178" stroke="#FFFFFF" stroke-width="1.5" marker-end="url(#arr)"/>
  <line x1="545" y1="146" x2="545" y2="178" stroke="#FFFFFF" stroke-width="1.5" marker-end="url(#arr)"/>
  <line x1="754" y1="146" x2="754" y2="178" stroke="#FFFFFF" stroke-width="1.5" marker-end="url(#arr)"/>
  <text x="450" y="166" text-anchor="middle" font-size="10" fill="#888888">HTTPS</text>

  <!-- EDGE boxes -->
  <rect x="72" y="198" width="228" height="68" rx="8" fill="#1A3830" stroke="#3DB88A" stroke-width="1.5"/>
  <text x="186" y="227" text-anchor="middle" font-size="13" font-weight="700" fill="#FFFFFF">Next.js middleware</text>
  <text x="186" y="248" text-anchor="middle" font-size="11" fill="#7EEDC5">Auth guard + routing</text>

  <rect x="320" y="198" width="252" height="68" rx="8" fill="#1A3830" stroke="#3DB88A" stroke-width="1.5"/>
  <text x="446" y="227" text-anchor="middle" font-size="13" font-weight="700" fill="#FFFFFF">Vercel edge</text>
  <text x="446" y="248" text-anchor="middle" font-size="11" fill="#7EEDC5">CDN + global deploy</text>

  <rect x="592" y="198" width="268" height="68" rx="8" fill="#1A3830" stroke="#3DB88A" stroke-width="1.5"/>
  <text x="726" y="227" text-anchor="middle" font-size="13" font-weight="700" fill="#FFFFFF">Supabase realtime</text>
  <text x="726" y="248" text-anchor="middle" font-size="11" fill="#7EEDC5">WebSocket push</text>

  <!-- WS dashed back to Analytics -->
  <path d="M860 218 Q880 218 880 112 Q880 112 860 112" fill="none" stroke="#3DB88A" stroke-width="1.5" stroke-dasharray="5 3" marker-end="url(#arr-green)"/>
  <text x="886" y="170" text-anchor="start" font-size="10" fill="#3DB88A" transform="rotate(90,886,170)">WS push</text>

  <!-- EDGE → API arrows -->
  <line x1="186" y1="266" x2="186" y2="298" stroke="#FFFFFF" stroke-width="1.5" marker-end="url(#arr)"/>
  <line x1="446" y1="266" x2="446" y2="298" stroke="#FFFFFF" stroke-width="1.5" marker-end="url(#arr)"/>
  <line x1="726" y1="266" x2="726" y2="298" stroke="#FFFFFF" stroke-width="1.5" marker-end="url(#arr)"/>

  <!-- API row 1 -->
  <rect x="72" y="318" width="172" height="58" rx="8" fill="#3B1F1A" stroke="#E8724A" stroke-width="1.5"/>
  <text x="158" y="342" text-anchor="middle" font-size="13" font-weight="700" fill="#FFFFFF">/api/auth</text>
  <text x="158" y="362" text-anchor="middle" font-size="11" fill="#F5A085">JWT + sessions</text>

  <rect x="258" y="318" width="200" height="58" rx="8" fill="#3B1F1A" stroke="#E8724A" stroke-width="1.5"/>
  <text x="358" y="342" text-anchor="middle" font-size="13" font-weight="700" fill="#FFFFFF">/api/ai/decompose</text>
  <text x="358" y="362" text-anchor="middle" font-size="11" fill="#F5A085">Claude prompt chain</text>

  <rect x="472" y="318" width="192" height="58" rx="8" fill="#3B1F1A" stroke="#E8724A" stroke-width="1.5"/>
  <text x="568" y="342" text-anchor="middle" font-size="13" font-weight="700" fill="#FFFFFF">/api/ai/coach</text>
  <text x="568" y="362" text-anchor="middle" font-size="11" fill="#F5A085">Claude stream (SSE)</text>

  <rect x="678" y="318" width="182" height="58" rx="8" fill="#3B1F1A" stroke="#E8724A" stroke-width="1.5"/>
  <text x="769" y="342" text-anchor="middle" font-size="13" font-weight="700" fill="#FFFFFF">/api/tasks</text>
  <text x="769" y="362" text-anchor="middle" font-size="11" fill="#F5A085">CRUD + ordering</text>

  <!-- API row 2 -->
  <rect x="130" y="400" width="196" height="58" rx="8" fill="#3B1F1A" stroke="#E8724A" stroke-width="1.5"/>
  <text x="228" y="424" text-anchor="middle" font-size="13" font-weight="700" fill="#FFFFFF">/api/sessions</text>
  <text x="228" y="444" text-anchor="middle" font-size="11" fill="#F5A085">Pomodoro logging</text>

  <rect x="342" y="400" width="210" height="58" rx="8" fill="#3B1F1A" stroke="#E8724A" stroke-width="1.5"/>
  <text x="447" y="424" text-anchor="middle" font-size="13" font-weight="700" fill="#FFFFFF">/api/analytics</text>
  <text x="447" y="444" text-anchor="middle" font-size="11" fill="#F5A085">Score + heatmap data</text>

  <rect x="568" y="400" width="242" height="58" rx="8" fill="#3B1F1A" stroke="#E8724A" stroke-width="1.5"/>
  <text x="689" y="424" text-anchor="middle" font-size="13" font-weight="700" fill="#FFFFFF">/api/notifications</text>
  <text x="689" y="444" text-anchor="middle" font-size="11" fill="#F5A085">Web push (VAPID)</text>

  <!-- API → DATA arrows (white dashed) -->
  <line x1="228" y1="458" x2="186" y2="548" stroke="#FFFFFF" stroke-width="1.5" stroke-dasharray="4 3" marker-end="url(#arr)"/>
  <line x1="447" y1="458" x2="447" y2="548" stroke="#FFFFFF" stroke-width="1.5" stroke-dasharray="4 3" marker-end="url(#arr)"/>
  <line x1="689" y1="458" x2="726" y2="548" stroke="#FFFFFF" stroke-width="1.5" stroke-dasharray="4 3" marker-end="url(#arr)"/>

  <!-- DATA boxes -->
  <rect x="72" y="564" width="228" height="50" rx="8" fill="#2B2208" stroke="#E8B830" stroke-width="1.5"/>
  <text x="186" y="584" text-anchor="middle" font-size="13" font-weight="700" fill="#FFFFFF">Postgres (Supabase)</text>
  <text x="186" y="602" text-anchor="middle" font-size="11" fill="#F5C842">Tasks · sessions · users</text>

  <rect x="326" y="564" width="248" height="50" rx="8" fill="#2B2208" stroke="#E8B830" stroke-width="1.5"/>
  <text x="450" y="584" text-anchor="middle" font-size="13" font-weight="700" fill="#FFFFFF">Anthropic + Groq</text>
  <text x="450" y="602" text-anchor="middle" font-size="11" fill="#F5C842">Claude → LLaMA fallback</text>

  <rect x="600" y="564" width="260" height="50" rx="8" fill="#2B2208" stroke="#E8B830" stroke-width="1.5"/>
  <text x="730" y="584" text-anchor="middle" font-size="13" font-weight="700" fill="#FFFFFF">Redis (Upstash)</text>
  <text x="730" y="602" text-anchor="middle" font-size="11" fill="#F5C842">Rate limit + AI cache</text>
</svg>
