<svg width="900" height="560" viewBox="0 0 900 560" xmlns="http://www.w3.org/2000/svg" font-family="'Segoe UI', system-ui, sans-serif">
  <defs>
    <marker id="arr" viewBox="0 0 10 10" refX="8" refY="5" markerWidth="6" markerHeight="6" orient="auto-start-reverse">
      <path d="M2 1L8 5L2 9" fill="none" stroke="#5A5790" stroke-width="1.5" stroke-linecap="round" stroke-linejoin="round"/>
    </marker>
  </defs>

  <rect width="900" height="560" fill="#0F0F1A" rx="16"/>
  <text x="450" y="36" text-anchor="middle" font-size="18" font-weight="700" fill="#E8E6FF" letter-spacing="0.5">FocusFlow AI — Page Map</text>

  <!-- /auth root -->
  <rect x="330" y="56" width="240" height="58" rx="8" fill="#1E2235" stroke="#4A4870" stroke-width="1.5"/>
  <text x="450" y="79" text-anchor="middle" font-size="14" font-weight="700" fill="#C5BFFF">/auth</text>
  <text x="450" y="98" text-anchor="middle" font-size="11" fill="#6A6A90">Login / signup / OAuth</text>

  <!-- Branches to onboarding and shell -->
  <path d="M390 114 L220 172" fill="none" stroke="#5A5790" stroke-width="1.5" marker-end="url(#arr)"/>
  <path d="M510 114 L680 172" fill="none" stroke="#5A5790" stroke-width="1.5" marker-end="url(#arr)"/>
  <text x="278" y="146" text-anchor="middle" font-size="11" fill="#6A6A90">new user</text>
  <text x="620" y="146" text-anchor="middle" font-size="11" fill="#6A6A90">returning</text>

  <!-- /onboarding -->
  <rect x="100" y="172" width="240" height="58" rx="8" fill="#1A3830" stroke="#3DB88A" stroke-width="1.5"/>
  <text x="220" y="195" text-anchor="middle" font-size="14" font-weight="700" fill="#7EEDC5">/onboarding</text>
  <text x="220" y="214" text-anchor="middle" font-size="11" fill="#4DB896">Goals + schedule prefs</text>

  <!-- /app shell -->
  <rect x="560" y="172" width="240" height="58" rx="8" fill="#2D1F6E" stroke="#7B6FD4" stroke-width="1.5"/>
  <text x="680" y="195" text-anchor="middle" font-size="14" font-weight="700" fill="#C5BFFF">/app (shell)</text>
  <text x="680" y="214" text-anchor="middle" font-size="11" fill="#8A84C4">Sidebar + global nav</text>

  <!-- onboarding → shell -->
  <path d="M340 201 L560 201" fill="none" stroke="#3DB88A" stroke-width="1.5" marker-end="url(#arr)"/>

  <!-- Shell → 5 main pages -->
  <path d="M624 230 L100 298" fill="none" stroke="#5A5790" stroke-width="1" marker-end="url(#arr)"/>
  <path d="M644 230 L260 298" fill="none" stroke="#5A5790" stroke-width="1" marker-end="url(#arr)"/>
  <path d="M670 230 L450 298" fill="none" stroke="#5A5790" stroke-width="1" marker-end="url(#arr)"/>
  <path d="M700 230 L650 298" fill="none" stroke="#5A5790" stroke-width="1" marker-end="url(#arr)"/>
  <path d="M730 230 L820 298" fill="none" stroke="#5A5790" stroke-width="1" marker-end="url(#arr)"/>

  <!-- 5 main pages -->
  <rect x="28" y="298" width="144" height="60" rx="8" fill="#3B1F1A" stroke="#D45A30" stroke-width="1.5"/>
  <text x="100" y="322" text-anchor="middle" font-size="13" font-weight="600" fill="#F5A085">/dashboard</text>
  <text x="100" y="340" text-anchor="middle" font-size="10" fill="#C47060">Score + today's plan</text>

  <rect x="186" y="298" width="148" height="60" rx="8" fill="#3B1F1A" stroke="#D45A30" stroke-width="1.5"/>
  <text x="260" y="322" text-anchor="middle" font-size="13" font-weight="600" fill="#F5A085">/tasks</text>
  <text x="260" y="340" text-anchor="middle" font-size="10" fill="#C47060">AI decomposer view</text>

  <rect x="358" y="298" width="184" height="60" rx="8" fill="#3B1F1A" stroke="#D45A30" stroke-width="1.5"/>
  <text x="450" y="322" text-anchor="middle" font-size="13" font-weight="600" fill="#F5A085">/focus</text>
  <text x="450" y="340" text-anchor="middle" font-size="10" fill="#C47060">Pomodoro + AI coach</text>

  <rect x="556" y="298" width="180" height="60" rx="8" fill="#3B1F1A" stroke="#D45A30" stroke-width="1.5"/>
  <text x="646" y="322" text-anchor="middle" font-size="13" font-weight="600" fill="#F5A085">/analytics</text>
  <text x="646" y="340" text-anchor="middle" font-size="10" fill="#C47060">Heatmap + trends</text>

  <rect x="750" y="298" width="130" height="60" rx="8" fill="#3B1F1A" stroke="#D45A30" stroke-width="1.5"/>
  <text x="815" y="322" text-anchor="middle" font-size="13" font-weight="600" fill="#F5A085">/settings</text>
  <text x="815" y="340" text-anchor="middle" font-size="10" fill="#C47060">Profile + prefs</text>

  <!-- Sub-page arrows -->
  <line x1="260" y1="358" x2="220" y2="418" stroke="#5A5790" stroke-width="1" marker-end="url(#arr)"/>
  <line x1="450" y1="358" x2="450" y2="418" stroke="#5A5790" stroke-width="1" marker-end="url(#arr)"/>
  <line x1="646" y1="358" x2="646" y2="418" stroke="#5A5790" stroke-width="1" marker-end="url(#arr)"/>

  <!-- Sub-pages -->
  <rect x="100" y="418" width="240" height="56" rx="8" fill="#2B2208" stroke="#C9820A" stroke-width="1.5"/>
  <text x="220" y="440" text-anchor="middle" font-size="13" font-weight="600" fill="#F5C842">/tasks/[id]</text>
  <text x="220" y="458" text-anchor="middle" font-size="11" fill="#B8960A">Subtasks + progress</text>

  <rect x="358" y="418" width="184" height="56" rx="8" fill="#2B2208" stroke="#C9820A" stroke-width="1.5"/>
  <text x="450" y="440" text-anchor="middle" font-size="13" font-weight="600" fill="#F5C842">/focus/session</text>
  <text x="450" y="458" text-anchor="middle" font-size="11" fill="#B8960A">Live timer + AI chat</text>

  <rect x="556" y="418" width="180" height="56" rx="8" fill="#2B2208" stroke="#C9820A" stroke-width="1.5"/>
  <text x="646" y="440" text-anchor="middle" font-size="13" font-weight="600" fill="#F5C842">/analytics/advanced</text>
  <text x="646" y="458" text-anchor="middle" font-size="11" fill="#B8960A">Deep insights</text>

  <!-- API routes strip -->
  <rect x="28" y="494" width="844" height="42" rx="8" fill="#1A1830" stroke="#2D2B50" stroke-width="1"/>
  <text x="450" y="512" text-anchor="middle" font-size="10" font-weight="600" fill="#6B68A0" letter-spacing="0.5">API ROUTES</text>
  <text x="450" y="528" text-anchor="middle" font-size="11" fill="#5A5790">/api/ai/decompose · /api/ai/coach · /api/tasks · /api/sessions · /api/analytics · /api/notifications · /api/export</text>
</svg>
